<?xml version="1.0" encoding="UTF-8"?>
<svg width="450px" height="450px" viewBox="0 0 450 450" version="1.1" xmlns="http://www.w3.org/2000/svg" xmlns:xlink="http://www.w3.org/1999/xlink">
    <!-- Generator: Sketch 52.6 (67491) - http://www.bohemiancoding.com/sketch -->
    <title>Shape</title>
    <desc>Created with Sketch.</desc>
    <g id="Page-1" stroke="none" stroke-width="1" fill="none" fill-rule="evenodd">
        <g id="envelope-square-solid" transform="translate(1.000000, 1.000000)" fill="#9CD1F1" fill-rule="nonzero" stroke="#9CD1F1">
            <path d="M400,0 L48,0 C21.49,0 0,21.49 0,48 L0,400 C0,426.51 21.49,448 48,448 L400,448 C426.51,448 448,426.51 448,400 L448,48 C448,21.49 426.51,0 400,0 Z M178.117,230.104 C87.429,164.287 88.353,164.121 64,145.167 L64,120 C64,106.745 74.745,96 88,96 L360,96 C373.255,96 384,106.745 384,120 L384,145.167 C359.629,164.136 360.566,164.291 269.883,230.105 C259.383,237.76 238.491,256.225 224,255.999 C209.497,256.217 188.633,237.772 178.117,230.104 Z M384,185.775 L384,328 C384,341.255 373.255,352 360,352 L88,352 C74.745,352 64,341.255 64,328 L64,185.775 C77.958,196.569 97.329,211.011 159.303,255.989 C173.465,266.33 197.278,288.134 223.997,287.999 C250.884,288.133 275.034,265.958 288.717,255.974 C350.675,211.009 370.042,196.568 384,185.775 Z" id="Shape"></path>
        </g>
    </g>
</svg>