<?xml version="1.0" encoding="UTF-8"?>
<svg width="452px" height="450px" viewBox="0 0 452 450" version="1.1" xmlns="http://www.w3.org/2000/svg" xmlns:xlink="http://www.w3.org/1999/xlink">
    <!-- Generator: Sketch 52.6 (67491) - http://www.bohemiancoding.com/sketch -->
    <title>medium-brands</title>
    <desc>Created with Sketch.</desc>
    <g id="Page-1" stroke="none" stroke-width="1" fill="none" fill-rule="evenodd">
        <g id="medium-brands" transform="translate(1.000000, 1.000000)" fill="#49A0D2" fill-rule="nonzero" stroke="#49A0D2">
            <path d="M2.7533531e-14,448 L450,448 L450,4.76951811e-13 L2.7533531e-14,4.76951811e-13 L2.7533531e-14,448 Z M374.2,106.1 L350.2,129.1 C348.1,130.7 347.1,133.3 347.5,135.8 L347.5,305.1 C347.1,307.7 348.1,310.3 350.2,311.8 L373.7,334.8 L373.7,339.9 L255.7,339.9 L255.7,335 L280,311.4 C282.4,309 282.4,308.3 282.4,304.7 L282.4,167.8 L214.8,339.4 L205.7,339.4 L127,167.8 L127,282.8 C126.3,287.6 128,292.5 131.4,296 L163,334.3 L163,339.4 L73.2,339.4 L73.2,334.3 L104.8,296 C108.2,292.5 109.7,287.6 108.9,282.8 L108.9,149.8 C109.3,146.1 107.9,142.5 105.1,140 L77,106.1 L77,101 L164.3,101 L231.7,249 L291,101.1 L374.2,101.1 L374.2,106.1 Z" id="Shape"></path>
        </g>
    </g>
</svg>